<svg width="180" height="40" viewBox="0 0 180 40" fill="none" xmlns="http://www.w3.org/2000/svg">
<path d="M90.0276 24.1398C89.5726 22.9823 88.9451 21.9823 88.1651 21.1673C87.3851 20.3523 86.4576 19.7098 85.4151 19.2573C85.4001 19.2498 83.9276 18.5323 82.2051 18.5698C81.1601 18.5923 80.5876 18.8523 80.1326 19.0998C80.0901 19.1248 80.0501 19.1498 80.0076 19.1748C79.8176 19.3023 79.3426 19.6173 78.9101 20.1448C78.0901 21.1473 77.9776 22.7448 78.1501 23.9023L78.2176 24.3623L78.5551 24.0648C78.8551 23.7973 79.4126 23.4048 80.2176 23.2073C80.6476 23.1023 81.1001 23.0898 81.5401 23.1498C82.5901 23.2923 83.4851 23.7498 84.2051 24.5148C85.0826 25.4473 85.5251 26.6498 85.5251 28.0898C85.5251 29.5298 85.0776 30.7198 84.1976 31.6148C83.3126 32.5123 82.1826 32.9673 80.8326 32.9673C79.4826 32.9673 78.3426 32.5248 77.4701 31.6548C76.0751 30.2598 76.1726 27.5148 76.1751 27.4773V11.2848C76.1751 11.2023 76.1201 11.1298 76.0426 11.1048L75.4801 10.9348C74.9951 10.7873 74.4376 10.7148 73.8201 10.7148C72.9826 10.7148 72.3126 10.8873 71.8276 11.2248C71.3926 11.5273 71.1726 12.0848 71.1726 12.8848V27.2023C71.1726 28.7298 71.3276 30.0673 71.6351 31.1798C71.9376 32.2748 72.3726 33.2023 72.9251 33.9423C73.8101 35.1048 74.9551 36.0023 76.3276 36.6073C77.7151 37.2173 79.2801 37.5273 80.9801 37.5273C82.3701 37.5273 83.6751 37.2948 84.8576 36.8373C86.0401 36.3798 87.0776 35.7348 87.9401 34.9198C88.8001 34.1048 89.4851 33.1023 89.9751 31.9373C90.4651 30.7698 90.7151 29.4623 90.7151 28.0523C90.7151 26.6423 90.4826 25.2973 90.0276 24.1398Z" fill="#0072FF"/>
<path d="M59.7826 10.9422C59.2826 10.7947 58.7176 10.7197 58.1026 10.7197C57.2676 10.7197 56.5951 10.8922 56.1076 11.2297C55.6726 11.5322 55.4526 12.0922 55.4526 12.8897V37.0147H60.4951V11.1547L59.7851 10.9422H59.7826Z" fill="#0072FF"/>
<path d="M66 16.3247C66.795 16.3247 67.47 16.0572 68.01 15.5272C68.5475 14.9997 68.82 14.3322 68.82 13.5422C68.82 12.7522 68.5475 12.0747 68.0075 11.5347C67.4675 10.9947 66.7925 10.7222 66 10.7222C65.2075 10.7222 64.5425 10.9947 64.015 11.5322C63.485 12.0722 63.2175 12.7497 63.2175 13.5422C63.2175 14.3347 63.485 15.0047 64.0125 15.5322C64.54 16.0597 65.21 16.3272 66.0025 16.3272" fill="#0072FF"/>
<path d="M66.1476 19.0972C65.3101 19.0972 64.6401 19.2697 64.1551 19.6072C63.7201 19.9097 63.5001 20.4697 63.5001 21.2672V37.0172H68.5426V19.5322L67.8326 19.3197C67.3351 19.1722 66.7676 19.0997 66.1501 19.0997" fill="#0072FF"/>
<path d="M97.2926 10.9422C96.7926 10.7947 96.2276 10.7197 95.6126 10.7197C94.7776 10.7197 94.1051 10.8922 93.6201 11.2297C93.1851 11.5322 92.9626 12.0922 92.9626 12.8897V37.0147H98.0051V11.1547L97.2951 10.9422H97.2926Z" fill="#0072FF"/>
<path d="M103.398 16.3247C104.193 16.3247 104.868 16.0572 105.408 15.5272C105.945 14.9997 106.218 14.3322 106.218 13.5422C106.218 12.7522 105.945 12.0747 105.405 11.5347C104.865 10.9947 104.19 10.7222 103.398 10.7222C102.605 10.7222 101.938 10.9947 101.41 11.5322C100.88 12.0722 100.613 12.7497 100.613 13.5422C100.613 14.3347 100.88 15.0047 101.408 15.5322C101.935 16.0597 102.605 16.3272 103.398 16.3272" fill="#0072FF"/>
<path d="M103.545 19.0972C102.708 19.0972 102.038 19.2697 101.553 19.6072C101.118 19.9097 100.898 20.4672 100.898 21.2672V37.0172H105.94V19.5322L105.23 19.3197C104.733 19.1722 104.168 19.0972 103.55 19.0972" fill="#0072FF"/>
<path d="M52.4401 24.1398C51.9851 22.9823 51.3576 21.9823 50.5776 21.1673C49.7976 20.3523 48.8701 19.7098 47.8276 19.2573C47.8126 19.2498 46.3401 18.5323 44.6176 18.5698C43.5701 18.5923 43.0001 18.8523 42.5451 19.0998C42.5026 19.1248 42.4626 19.1498 42.4201 19.1748C42.2301 19.3023 41.7551 19.6173 41.3226 20.1448C40.5026 21.1473 40.3901 22.7448 40.5626 23.9023L40.6301 24.3623L40.9676 24.0648C41.2676 23.7973 41.8251 23.4048 42.6301 23.2073C43.0601 23.1023 43.5126 23.0898 43.9526 23.1498C45.0026 23.2923 45.8976 23.7498 46.6176 24.5148C47.4951 25.4473 47.9401 26.6498 47.9401 28.0898C47.9401 29.5298 47.4926 30.7198 46.6101 31.6148C45.7251 32.5123 44.5951 32.9673 43.2451 32.9673C41.8951 32.9673 40.7551 32.5248 39.8826 31.6548C38.4876 30.2598 38.5851 27.5148 38.5876 27.4773V11.2848C38.5876 11.2023 38.5326 11.1298 38.4551 11.1048L37.8926 10.9348C37.4076 10.7873 36.8501 10.7148 36.2326 10.7148C35.3951 10.7148 34.7251 10.8873 34.2401 11.2248C33.8051 11.5273 33.5851 12.0848 33.5851 12.8848V27.2023C33.5851 28.7298 33.7401 30.0673 34.0476 31.1798C34.3501 32.2748 34.7851 33.2023 35.3376 33.9423C36.2226 35.1048 37.3676 36.0023 38.7401 36.6073C40.1276 37.2173 41.6926 37.5273 43.3926 37.5273C44.7826 37.5273 46.0876 37.2948 47.2701 36.8373C48.4526 36.3798 49.4901 35.7348 50.3526 34.9198C51.2126 34.1048 51.8976 33.1023 52.3876 31.9373C52.8776 30.7698 53.1276 29.4623 53.1276 28.0523C53.1276 26.6423 52.8951 25.2973 52.4401 24.1398Z" fill="#0072FF"/>
<path d="M27.59 12.8077C27.73 11.9402 27.03 11.2002 26.1625 11.2002H26.05C21.505 11.6477 18.5825 11.8852 15.675 11.8852C12.7675 11.8852 9.83003 11.6627 5.30003 11.2002H5.18753C4.33503 11.2002 3.63503 11.9402 3.76003 12.8077C5.29753 21.6877 5.29753 27.2102 3.06003 35.2527C2.78003 36.1627 3.48003 37.0002 4.38753 37.0002H26.975C27.885 37.0002 28.5825 36.1602 28.3025 35.2527C26.05 27.2127 26.05 21.6877 27.59 12.8077Z" fill="#0072FF"/>
<path d="M11.0626 18.6298C11.6651 18.6298 12.1401 18.1273 12.1401 17.5798C12.1401 17.0073 11.6651 16.5298 11.0626 16.5298C10.4601 16.5298 10.0426 17.0048 10.0426 17.5798C10.0426 18.1548 10.4626 18.6298 11.0626 18.6298Z" fill="white"/>
<path d="M20.2076 18.6298C20.8101 18.6298 21.2851 18.1273 21.2851 17.5798C21.2851 17.0073 20.8101 16.5298 20.2076 16.5298C19.6051 16.5298 19.1876 17.0048 19.1876 17.5798C19.1876 18.1548 19.6076 18.6298 20.2076 18.6298Z" fill="white"/>
<path d="M15.6626 26.8371C11.2576 26.8371 9.83008 22.9921 9.83008 21.1321C9.83008 20.7396 10.1376 20.4321 10.5301 20.4321C10.9226 20.4321 11.2301 20.7396 11.2301 21.1321C11.2301 22.5296 12.3076 25.4396 15.6626 25.4396C19.0176 25.4396 20.0951 22.5446 20.0951 21.1321C20.0951 20.7396 20.4026 20.4321 20.7951 20.4321C21.1876 20.4321 21.4951 20.7396 21.4951 21.1321C21.4951 23.0071 20.0676 26.8371 15.6626 26.8371Z" fill="white"/>
<path d="M18.6073 7.38441C20.1929 7.01016 21.175 5.42132 20.8007 3.83565C20.4265 2.24998 18.8376 1.26793 17.252 1.64218C15.6663 2.01643 14.6843 3.60527 15.0585 5.19094C15.4328 6.77661 17.0216 7.75866 18.6073 7.38441Z" fill="#FFCD00"/>
<path d="M24.9376 10.3148L25.0451 7.37229C25.0801 6.38979 23.9976 5.77479 23.1701 6.30729L17.6676 9.86479C17.2776 10.1173 17.0401 10.4848 16.9451 10.8798C19.1851 10.8273 21.5776 10.6373 24.9376 10.3148Z" fill="#00CDC7"/>
<path d="M6.58506 10.3352C10.1801 10.6902 12.9076 10.8927 15.6051 10.8952L14.3151 6.62019C14.0701 5.80769 13.2126 5.34769 12.4001 5.59269L7.23006 7.15269C6.41756 7.39769 5.95756 8.25519 6.20256 9.06769L6.58506 10.3352Z" fill="#FF4646"/>
<path d="M114.12 36.1576H114.038L113.658 36.9826H111.728V25.4326H114.335V29.2451H114.418C114.615 28.9476 115.39 28.3376 116.563 28.3376C118.593 28.3376 120.423 30.2026 120.423 32.7751C120.423 35.3476 118.59 37.2126 116.563 37.2126C115.325 37.2126 114.45 36.5526 114.12 36.1576ZM117.815 32.7751C117.815 31.5551 117.023 30.6951 116.083 30.6951C115.143 30.6951 114.333 31.5526 114.333 32.7751C114.333 33.9976 115.14 34.8526 116.083 34.8526C117.025 34.8526 117.815 33.9951 117.815 32.7751Z" fill="#0046AA"/>
<path d="M121.665 33.5829V28.5679H124.273V33.2529C124.273 34.1279 124.9 34.8029 125.725 34.8029C126.55 34.8029 127.178 34.1254 127.178 33.2529V28.5679H129.785V36.9829H127.87L127.475 36.1579H127.393C127.163 36.4554 126.32 37.2129 125.05 37.2129C123.038 37.2129 121.668 35.7779 121.668 33.5829H121.665Z" fill="#0046AA"/>
<path d="M131.088 34.3429L133.578 34.2279C133.643 34.8054 134.073 35.2004 134.7 35.2004C135.328 35.2004 135.608 34.9029 135.608 34.5729C135.608 33.2529 131.268 33.7479 131.268 30.8779C131.268 29.4754 132.44 28.3379 134.65 28.3379C136.713 28.3379 137.983 29.5579 138.115 31.1254L135.625 31.2254C135.543 30.7129 135.263 30.3504 134.668 30.3504C134.14 30.3504 133.875 30.6154 133.875 30.9104C133.875 32.1654 138.215 31.5204 138.215 34.5079C138.215 36.0579 137.028 37.2129 134.7 37.2129C132.505 37.2129 131.203 35.9579 131.088 34.3429Z" fill="#0046AA"/>
<path d="M139.422 26.2077C139.422 25.4152 140.05 24.8052 140.875 24.8052C141.7 24.8052 142.31 25.4152 142.31 26.2077C142.31 27.0002 141.682 27.6102 140.875 27.6102C140.067 27.6102 139.422 26.9827 139.422 26.2077ZM139.57 36.9802V28.5652H142.177V36.9802H139.57Z" fill="#0046AA"/>
<path d="M143.943 36.9829V28.5679H145.873L146.253 29.3929H146.335C146.565 29.0954 147.408 28.3379 148.695 28.3379C150.693 28.3379 152.06 29.7729 152.06 31.9679V36.9829H149.453V32.2979C149.453 31.4229 148.843 30.7479 148 30.7479C147.158 30.7479 146.548 31.4254 146.548 32.2979V36.9829H143.94H143.943Z" fill="#0046AA"/>
<path d="M161.843 33.5825H155.838C156.085 34.5075 156.778 35.0175 157.67 35.0175C158.495 35.0175 158.925 34.605 159.09 34.4225L161.698 34.5375C161.235 35.725 159.85 37.21 157.705 37.21C155.248 37.21 153.3 35.2125 153.3 32.7725C153.3 30.3325 155.28 28.335 157.688 28.335C160.095 28.335 161.945 30.25 161.945 32.625C161.945 33.0875 161.895 33.4175 161.845 33.5825H161.843ZM155.82 31.965H159.465C159.268 31.1075 158.575 30.4975 157.65 30.4975C156.775 30.4975 156.065 31.0425 155.818 31.965H155.82Z" fill="#0046AA"/>
<path d="M162.743 34.3429L165.233 34.2279C165.298 34.8054 165.728 35.2004 166.355 35.2004C166.983 35.2004 167.263 34.9029 167.263 34.5729C167.263 33.2529 162.923 33.7479 162.923 30.8779C162.923 29.4754 164.095 28.3379 166.305 28.3379C168.368 28.3379 169.638 29.5579 169.77 31.1254L167.28 31.2254C167.198 30.7129 166.918 30.3504 166.323 30.3504C165.795 30.3504 165.53 30.6154 165.53 30.9104C165.53 32.1654 169.87 31.5204 169.87 34.5079C169.87 36.0579 168.683 37.2129 166.355 37.2129C164.16 37.2129 162.858 35.9579 162.743 34.3429Z" fill="#0046AA"/>
<path d="M170.77 34.3429L173.26 34.2279C173.325 34.8054 173.755 35.2004 174.383 35.2004C175.01 35.2004 175.29 34.9029 175.29 34.5729C175.29 33.2529 170.95 33.7479 170.95 30.8779C170.95 29.4754 172.123 28.3379 174.333 28.3379C176.395 28.3379 177.665 29.5579 177.798 31.1254L175.308 31.2254C175.225 30.7129 174.945 30.3504 174.35 30.3504C173.823 30.3504 173.558 30.6154 173.558 30.9104C173.558 32.1654 177.898 31.5204 177.898 34.5079C177.898 36.0579 176.71 37.2129 174.383 37.2129C172.188 37.2129 170.885 35.9579 170.77 34.3429Z" fill="#0046AA"/>
<path d="M114.185 14.4751H116.033V16.7526H114.333V22.7751H111.725V16.7526H110.67V14.4751H111.725V14.1126C111.725 12.1826 112.93 10.9951 114.745 10.9951C115.34 10.9951 115.785 11.1101 116.033 11.2101V13.4526C115.85 13.3876 115.603 13.3526 115.34 13.3526C114.615 13.3526 114.203 13.7001 114.185 14.4751Z" fill="#0046AA"/>
<path d="M116.615 18.5674C116.615 16.1574 118.595 14.1299 121.037 14.1299C123.48 14.1299 125.46 16.1599 125.46 18.5674C125.46 20.9749 123.462 23.0049 121.037 23.0049C118.612 23.0049 116.615 20.9749 116.615 18.5674ZM122.852 18.5674C122.852 17.3624 122.06 16.4874 121.037 16.4874C120.015 16.4874 119.222 17.3624 119.222 18.5674C119.222 19.7724 119.997 20.6449 121.037 20.6449C122.077 20.6449 122.852 19.7699 122.852 18.5674Z" fill="#0046AA"/>
<path d="M126.773 22.7749V14.3599H128.703L129.083 15.1849H129.165C129.363 14.9199 130.023 14.1299 131.128 14.1299C131.458 14.1299 131.688 14.1624 131.903 14.2299V16.8849C131.688 16.8199 131.425 16.8024 131.095 16.8024C130.04 16.8024 129.38 17.4449 129.38 18.5674V22.7749H126.773Z" fill="#0046AA"/>
</svg>
