<svg xmlns="http://www.w3.org/2000/svg" version="1.1" xmlns:xlink="http://www.w3.org/1999/xlink" xmlns:svgjs="http://svgjs.dev/svgjs" width="1500" height="1500" viewBox="0 0 1500 1500"><rect width="1500" height="1500" fill="#ffffff"></rect><g transform="matrix(0.6666666666666666,0,0,0.6666666666666666,249.52497853347637,454.3333333333334)"><svg viewBox="0 0 338 200" data-background-color="#ffffff" preserveAspectRatio="xMidYMid meet" height="887" width="1500" xmlns="http://www.w3.org/2000/svg" xmlns:xlink="http://www.w3.org/1999/xlink"><g id="tight-bounds" transform="matrix(1,0,0,1,0.16055725568497792,0)"><svg viewBox="0 0 337.67888548863004 200" height="200" width="337.67888548863004"><g><svg viewBox="0 0 339.36727991607313 200.99999999999997" height="200" width="337.67888548863004"><g><rect width="8.4973272692974" height="200.99999999999997" x="131.62852781520692" y="0" fill="#0c0a0f" opacity="1" stroke-width="0" stroke="transparent" fill-opacity="1" class="rect-qz-0" data-fill-palette-color="primary" rx="1%" id="qz-0" data-palette-color="#0c0a0f"></rect></g><g transform="matrix(1,0,0,1,162.37016730779595,0.4999999999999858)"><svg viewBox="0 0 176.99711260827718 200" height="200" width="176.99711260827718"><g id="textblocktransform"><svg viewBox="0 0 176.99711260827718 200" height="200" width="176.99711260827718" id="textblock"><g><svg viewBox="0 0 176.99711260827718 200" height="200" width="176.99711260827718"><g transform="matrix(1,0,0,1,0,0)"><svg width="176.99711260827718" viewBox="2.8499999999999996 -37.1 91.95 89.65" height="200" data-palette-color="#0c0a0f"><svg></svg><svg></svg><g class="wordmark-text-0" data-fill-palette-color="primary" id="text-0"><path d="M10.95 0.6c-1.4 0-2.683-0.123-3.85-0.37-1.167-0.253-2.123-0.53-2.87-0.83-0.753-0.3-1.13-0.467-1.13-0.5v0l-0.25-0.5c0.033-0.2 0.1-0.7 0.2-1.5 0.1-0.8 0.193-1.843 0.28-3.13 0.08-1.28 0.12-2.637 0.12-4.07v0l2.25-0.25c0 2.5 0.167 4.35 0.5 5.55 0.333 1.2 0.95 2.023 1.85 2.47 0.9 0.453 2.283 0.68 4.15 0.68v0c2.1 0 3.783-0.493 5.05-1.48 1.267-0.98 1.9-2.32 1.9-4.02v0c0-1-0.34-1.9-1.02-2.7-0.687-0.8-1.497-1.483-2.43-2.05-0.933-0.567-2.317-1.333-4.15-2.3v0c-1.733-0.9-3.15-1.727-4.25-2.48-1.1-0.747-2.023-1.637-2.77-2.67-0.753-1.033-1.13-2.233-1.13-3.6v0c0-1.733 0.51-3.31 1.53-4.73 1.013-1.413 2.397-2.53 4.15-3.35 1.747-0.813 3.687-1.22 5.82-1.22v0c1.333 0 2.567 0.09 3.7 0.27 1.133 0.187 2.033 0.38 2.7 0.58 0.667 0.2 1.083 0.333 1.25 0.4v0l0.15 0.3c-0.033 0.2-0.117 0.667-0.25 1.4-0.133 0.733-0.283 1.75-0.45 3.05-0.167 1.3-0.3 2.633-0.4 4v0l-1.95 0.2-0.3-0.25c0.033-0.133 0.067-0.443 0.1-0.93 0.033-0.48 0.05-1.037 0.05-1.67v0c0-1.767-0.433-2.983-1.3-3.65-0.867-0.667-2.417-1-4.65-1v0c-1.833 0-3.34 0.457-4.52 1.37-1.187 0.92-1.78 2.063-1.78 3.43v0c0 1.333 0.573 2.49 1.72 3.47 1.153 0.987 2.847 2.063 5.08 3.23v0c2.167 1.1 3.817 2.007 4.95 2.72 1.133 0.72 2.133 1.613 3 2.68 0.867 1.067 1.3 2.3 1.3 3.7v0c0 1.867-0.523 3.54-1.57 5.02-1.053 1.487-2.513 2.647-4.38 3.48-1.867 0.833-4 1.25-6.4 1.25zM28.75 11.85l0.25-1.95c0.733-0.1 1.277-0.25 1.63-0.45 0.347-0.2 0.587-0.533 0.72-1 0.133-0.467 0.2-1.183 0.2-2.15v0c0-1.4 0.017-2.6 0.05-3.6v0l0.05-4.7v-14.9c0-1.133-0.183-1.927-0.55-2.38-0.367-0.447-1-0.67-1.9-0.67v0h-0.55l-0.15-0.2 0.15-1.65c1.433-0.233 2.857-0.51 4.27-0.83 1.42-0.313 2.33-0.52 2.73-0.62v0l0.3 0.4c-0.033 0.167-0.107 0.523-0.22 1.07-0.12 0.553-0.213 1.097-0.28 1.63v0l0.2 0.35c3.133-2.167 5.067-3.25 5.8-3.25v0c1.9 0 3.583 0.44 5.05 1.32 1.467 0.887 2.6 2.13 3.4 3.73 0.8 1.6 1.2 3.433 1.2 5.5v0c0 2.367-0.567 4.55-1.7 6.55-1.133 2-2.65 3.59-4.55 4.77-1.9 1.187-3.967 1.78-6.2 1.78v0c-0.733 0-1.457-0.023-2.17-0.07-0.72-0.053-1.213-0.097-1.48-0.13v0l0.05 5.15c0 1.533 0.157 2.577 0.47 3.13 0.32 0.547 0.947 0.82 1.88 0.82v0l1.7-0.05 0.1 0.15-0.4 1.9h-4.75c-1.2 0-2.307 0.05-3.32 0.15-1.02 0.1-1.68 0.167-1.98 0.2zM40.05-2.15c2.233 0 3.993-0.757 5.28-2.27 1.28-1.52 1.92-3.597 1.92-6.23v0c0-1.667-0.29-3.183-0.87-4.55-0.587-1.367-1.387-2.45-2.4-3.25-1.02-0.8-2.13-1.2-3.33-1.2v0c-0.667 0-1.483 0.223-2.45 0.67-0.967 0.453-1.883 1.047-2.75 1.78v0c-0.267 4.367-0.4 9.067-0.4 14.1v0c0.667 0.267 1.457 0.49 2.37 0.67 0.92 0.187 1.797 0.28 2.63 0.28zM54.25 0.6l0.2-2.05c0.933-0.267 1.593-0.6 1.98-1 0.38-0.4 0.613-0.883 0.7-1.45 0.08-0.567 0.12-1.517 0.12-2.85v0-24.55c0-1.033-0.117-1.733-0.35-2.1-0.233-0.367-0.717-0.55-1.45-0.55v0c-0.167 0-0.55 0.033-1.15 0.1v0l-0.15-0.1 0.2-1.7c2.8-0.4 5.267-0.883 7.4-1.45v0l0.3 0.65c-0.367 0.567-0.69 4.133-0.97 10.7-0.287 6.567-0.43 13.517-0.43 20.85v0c0 1 0.133 1.717 0.4 2.15 0.267 0.433 0.717 0.65 1.35 0.65v0l1.75-0.1 0.1 0.2-0.4 2.15c-2.2-0.1-3.683-0.15-4.45-0.15v0c-1.133 0-2.85 0.2-5.15 0.6zM67.3 0.6l0.2-2.05c1-0.267 1.717-0.66 2.15-1.18 0.433-0.513 0.65-1.203 0.65-2.07v0-12.7c0-1.8-0.617-2.7-1.85-2.7v0c-0.233 0-0.483 0.023-0.75 0.07-0.267 0.053-0.433 0.097-0.5 0.13v0l0.2-1.85c1.4-0.2 2.843-0.467 4.33-0.8 1.48-0.333 2.437-0.55 2.87-0.65v0l0.25 0.6c-0.3 0.7-0.567 2.84-0.8 6.42-0.233 3.587-0.35 7.347-0.35 11.28v0c0 0.967 0.133 1.673 0.4 2.12 0.267 0.453 0.717 0.68 1.35 0.68v0c0.367 0 0.717-0.017 1.05-0.05 0.333-0.033 0.567-0.05 0.7-0.05v0l0.1 0.2-0.4 2.15c-0.3-0.033-0.867-0.067-1.7-0.1-0.833-0.033-1.75-0.05-2.75-0.05v0c-0.867 0-1.857 0.083-2.97 0.25-1.12 0.167-1.847 0.283-2.18 0.35zM71.7-29.1c-0.767 0-1.367-0.25-1.8-0.75-0.433-0.5-0.65-1.1-0.65-1.8v0c0-0.8 0.283-1.493 0.85-2.08 0.567-0.58 1.267-0.87 2.1-0.87v0c0.767 0 1.367 0.25 1.8 0.75 0.433 0.5 0.65 1.1 0.65 1.8v0c0 0.8-0.283 1.49-0.85 2.07-0.567 0.587-1.267 0.88-2.1 0.88zM89.5 0.6c-2.267 0-3.867-0.46-4.8-1.38-0.933-0.913-1.4-2.47-1.4-4.67v0-12.3c0-0.9-0.2-1.533-0.6-1.9-0.4-0.367-1.15-0.567-2.25-0.6v0l-0.2-0.3 0.25-1.5c0.967-0.467 1.91-1.043 2.83-1.73 0.913-0.68 1.663-1.28 2.25-1.8 0.58-0.513 0.953-0.853 1.12-1.02v0l1 0.4c-0.033 0.167-0.083 0.567-0.15 1.2-0.067 0.633-0.15 1.483-0.25 2.55v0l7.35-0.15 0.15 0.15-0.45 2.65-7.25-0.15c-0.233 3.667-0.35 7.833-0.35 12.5v0c0 1.7 0.293 2.9 0.88 3.6 0.58 0.7 1.587 1.05 3.02 1.05v0c0.5 0 1-0.067 1.5-0.2 0.5-0.133 0.917-0.277 1.25-0.43 0.333-0.147 0.55-0.237 0.65-0.27v0l0.5 1.3c-0.2 0.167-0.623 0.483-1.27 0.95-0.653 0.467-1.353 0.923-2.1 1.37-0.753 0.453-1.313 0.68-1.68 0.68z" fill="#0c0a0f" fill-rule="nonzero" stroke="none" stroke-width="1" stroke-linecap="butt" stroke-linejoin="miter" stroke-miterlimit="10" stroke-dasharray="" stroke-dashoffset="0" font-family="none" font-weight="none" font-size="none" text-anchor="none" style="mix-blend-mode: normal" data-fill-palette-color="primary" opacity="1"></path><path transform="translate(0,51.95)" d="M8.6 0c-1.033 0-2.15 0.083-3.35 0.25-1.2 0.167-1.983 0.283-2.35 0.35v0l0.3-2.3c1.533-0.3 2.567-0.743 3.1-1.33 0.533-0.58 0.8-1.57 0.8-2.97v0l0.05-21c0-1.067-0.123-1.783-0.37-2.15-0.253-0.367-0.747-0.55-1.48-0.55v0c-0.333 0-0.667 0.017-1 0.05-0.333 0.033-0.567 0.05-0.7 0.05v0l-0.1-0.2 0.35-2.2c0.4 0.033 1.15 0.067 2.25 0.1 1.1 0.033 2.2 0.05 3.3 0.05v0c1.133 0 2.293-0.027 3.48-0.08 1.18-0.047 1.987-0.087 2.42-0.12v0c3.167 0 5.6 0.657 7.3 1.97 1.7 1.32 2.55 3.197 2.55 5.63v0c0 1.667-0.507 3.167-1.52 4.5-1.02 1.333-2.447 2.4-4.28 3.2v0c2.433 0.533 4.333 1.467 5.7 2.8 1.367 1.333 2.05 2.933 2.05 4.8v0c0 1.7-0.54 3.29-1.62 4.77-1.087 1.487-2.53 2.67-4.33 3.55-1.8 0.887-3.733 1.33-5.8 1.33v0c-0.9 0-1.933-0.083-3.1-0.25v0c-1.9-0.167-3.117-0.25-3.65-0.25zM10.95-17.55c0.5 0.033 1.343 0.1 2.53 0.2 1.18 0.1 2.153 0.167 2.92 0.2v0c0 0.1 0.433-0.077 1.3-0.53 0.867-0.447 1.65-1.147 2.35-2.1 0.7-0.947 1.05-2.22 1.05-3.82v0c0-2.133-0.717-3.717-2.15-4.75-1.433-1.033-3.65-1.55-6.65-1.55v0c-0.333 0-0.557 0.073-0.67 0.22-0.12 0.153-0.197 0.463-0.23 0.93v0c-0.2 3.2-0.35 6.933-0.45 11.2zM10.85-14.9l-0.2 9.35c0 1.267 0.433 2.167 1.3 2.7 0.867 0.533 2.333 0.8 4.4 0.8v0c2 0 3.577-0.56 4.73-1.68 1.147-1.113 1.72-2.62 1.72-4.52v0c0-1.8-0.567-3.277-1.7-4.43-1.133-1.147-2.817-1.92-5.05-2.32v0zM31.55 0.6l0.2-2.05c1-0.267 1.717-0.66 2.15-1.18 0.433-0.513 0.65-1.203 0.65-2.07v0-12.7c0-1.8-0.617-2.7-1.85-2.7v0c-0.233 0-0.483 0.023-0.75 0.07-0.267 0.053-0.433 0.097-0.5 0.13v0l0.2-1.85c1.4-0.2 2.843-0.467 4.33-0.8 1.48-0.333 2.437-0.55 2.87-0.65v0l0.25 0.6c-0.3 0.7-0.567 2.84-0.8 6.42-0.233 3.587-0.35 7.347-0.35 11.28v0c0 0.967 0.133 1.673 0.4 2.12 0.267 0.453 0.717 0.68 1.35 0.68v0c0.367 0 0.717-0.017 1.05-0.05 0.333-0.033 0.567-0.05 0.7-0.05v0l0.1 0.2-0.4 2.15c-0.3-0.033-0.867-0.067-1.7-0.1-0.833-0.033-1.75-0.05-2.75-0.05v0c-0.867 0-1.857 0.083-2.97 0.25-1.12 0.167-1.847 0.283-2.18 0.35zM35.95-29.1c-0.767 0-1.367-0.25-1.8-0.75-0.433-0.5-0.65-1.1-0.65-1.8v0c0-0.8 0.283-1.493 0.85-2.08 0.567-0.58 1.267-0.87 2.1-0.87v0c0.767 0 1.367 0.25 1.8 0.75 0.433 0.5 0.65 1.1 0.65 1.8v0c0 0.8-0.283 1.49-0.85 2.07-0.567 0.587-1.267 0.88-2.1 0.88zM44.8 0.6l0.2-2.05c0.933-0.267 1.593-0.6 1.98-1 0.38-0.4 0.613-0.883 0.7-1.45 0.08-0.567 0.12-1.517 0.12-2.85v0-24.55c0-1.033-0.117-1.733-0.35-2.1-0.233-0.367-0.717-0.55-1.45-0.55v0c-0.167 0-0.55 0.033-1.15 0.1v0l-0.15-0.1 0.2-1.7c2.8-0.4 5.267-0.883 7.4-1.45v0l0.3 0.65c-0.367 0.567-0.69 4.133-0.97 10.7-0.287 6.567-0.43 13.517-0.43 20.85v0c0 1 0.133 1.717 0.4 2.15 0.267 0.433 0.717 0.65 1.35 0.65v0l1.75-0.1 0.1 0.2-0.4 2.15c-2.2-0.1-3.683-0.15-4.45-0.15v0c-1.133 0-2.85 0.2-5.15 0.6zM57 0.6l0.2-2.05c0.933-0.267 1.593-0.6 1.98-1 0.38-0.4 0.613-0.883 0.7-1.45 0.08-0.567 0.12-1.517 0.12-2.85v0-24.55c0-1.033-0.117-1.733-0.35-2.1-0.233-0.367-0.717-0.55-1.45-0.55v0c-0.167 0-0.55 0.033-1.15 0.1v0l-0.15-0.1 0.2-1.7c2.8-0.4 5.267-0.883 7.4-1.45v0l0.3 0.65c-0.367 0.567-0.69 4.133-0.97 10.7-0.287 6.567-0.43 13.517-0.43 20.85v0c0 1 0.133 1.717 0.4 2.15 0.267 0.433 0.717 0.65 1.35 0.65v0l1.75-0.1 0.1 0.2-0.4 2.15c-2.2-0.1-3.683-0.15-4.45-0.15v0c-1.133 0-2.85 0.2-5.15 0.6zM76.4 0.6c-1.067 0-2.04-0.073-2.92-0.22-0.887-0.153-1.58-0.313-2.08-0.48-0.5-0.167-0.817-0.283-0.95-0.35v0l-0.15-0.35c0.1-0.5 0.217-1.533 0.35-3.1 0.133-1.567 0.217-2.767 0.25-3.6v0l1.75-0.25c0 2.2 0.367 3.75 1.1 4.65 0.733 0.9 1.983 1.35 3.75 1.35v0c1.267 0 2.333-0.283 3.2-0.85 0.867-0.567 1.3-1.267 1.3-2.1v0c0-0.833-0.39-1.593-1.17-2.28-0.787-0.68-2.33-1.637-4.63-2.87v0c-1.9-0.967-3.283-1.95-4.15-2.95-0.867-1-1.3-2.1-1.3-3.3v0c0-1.333 0.4-2.543 1.2-3.63 0.8-1.08 1.9-1.93 3.3-2.55 1.4-0.613 2.967-0.92 4.7-0.92v0c0.8 0 1.567 0.057 2.3 0.17 0.733 0.12 1.333 0.247 1.8 0.38 0.467 0.133 0.767 0.217 0.9 0.25v0l0.1 0.25c-0.067 0.333-0.217 1.09-0.45 2.27-0.233 1.187-0.4 2.463-0.5 3.83v0l-1.85 0.15c0-0.1 0.017-0.3 0.05-0.6 0.033-0.3 0.05-0.583 0.05-0.85v0c0-1.2-0.323-2.077-0.97-2.63-0.653-0.547-1.697-0.82-3.13-0.82v0c-1.133 0-2.09 0.267-2.87 0.8-0.787 0.533-1.18 1.183-1.18 1.95v0c0 0.8 0.343 1.55 1.03 2.25 0.68 0.7 1.787 1.45 3.32 2.25v0c2.7 1.433 4.543 2.64 5.53 3.62 0.98 0.987 1.47 2.113 1.47 3.38v0c0 1.267-0.417 2.45-1.25 3.55-0.833 1.1-1.957 1.973-3.37 2.62-1.42 0.653-2.93 0.98-4.53 0.98z" fill="#0c0a0f" fill-rule="nonzero" stroke="none" stroke-width="1" stroke-linecap="butt" stroke-linejoin="miter" stroke-miterlimit="10" stroke-dasharray="" stroke-dashoffset="0" font-family="none" font-weight="none" font-size="none" text-anchor="none" style="mix-blend-mode: normal" data-fill-palette-color="primary" opacity="1"></path></g></svg></g></svg></g></svg></g></svg></g><g transform="matrix(1,0,0,1,0,45.81379982601234)"><svg viewBox="0 0 109.3842155919153 109.37240034797529" height="109.37240034797529" width="109.3842155919153"><g><svg xmlns="http://www.w3.org/2000/svg" xmlns:xlink="http://www.w3.org/1999/xlink" version="1.1" x="0" y="0" viewBox="6.34 6.344 83.321 83.31200000000001" enable-background="new 0 0 96 96" xml:space="preserve" height="109.37240034797529" width="109.3842155919153" class="icon-icon-0" data-fill-palette-color="accent" id="icon-0"><g fill="#f98d67" data-fill-palette-color="accent"><path d="M64.854 40.684c0 1.962 1.246 3.558 2.779 3.558h0.396c1.533 0 2.781-1.596 2.781-3.558V38.11h-5.957V40.684z" fill="#f98d67" data-fill-palette-color="accent"></path><path d="M57.311 25.313h-2.764c-0.732 0-1.422 0.36-1.938 1.01-0.537 0.667-0.844 1.587-0.842 2.586l0.766 12.202h6.793l0.766-12.304C60.09 26.881 58.842 25.313 57.311 25.313z" fill="#f98d67" data-fill-palette-color="accent"></path><path d="M52.949 46.583c0 1.962 1.248 3.558 2.781 3.558h0.395c1.533 0 2.781-1.596 2.783-3.558v-2.574h-5.959V46.583z" fill="#f98d67" data-fill-palette-color="accent"></path><path d="M69.213 19.414h-2.762c-1.533 0-2.781 1.586-2.781 3.599l0.766 12.199h6.793l0.77-12.303C71.994 20.982 70.746 19.414 69.213 19.414z" fill="#f98d67" data-fill-palette-color="accent"></path><path d="M61.703 6.344c-15.414 0-27.955 12.541-27.955 27.956 0 6.978 2.567 13.601 7.253 18.759l-7.588 7.588-2.974-2.975L6.34 81.775l7.882 7.881 24.098-24.105-2.961-2.961 7.587-7.587c5.16 4.685 11.783 7.253 18.76 7.253 15.414 0 27.955-12.541 27.955-27.956S77.119 6.344 61.703 6.344zM61.705 57.777c-12.947 0-23.479-10.531-23.479-23.479 0-12.946 10.532-23.479 23.479-23.479 12.945 0 23.479 10.533 23.479 23.479C85.184 47.245 74.65 57.777 61.705 57.777z" fill="#f98d67" data-fill-palette-color="accent"></path></g></svg></g></svg></g></svg></g><defs></defs></svg><rect width="337.67888548863004" height="200" fill="none" stroke="none" visibility="hidden"></rect></g></svg></g></svg>