<svg width="328" height="240" viewBox="0 0 328 240" fill="none" xmlns="http://www.w3.org/2000/svg">
<path d="M55.0777 159.991C55.0777 159.991 53.6792 188.109 77.1642 187.991C78.7123 187.983 80.2604 187.956 81.8048 187.956C106.929 187.956 132.053 187.956 157.177 187.956C186.177 187.956 215.177 187.956 244.176 187.956H259.412C263.375 187.956 267.233 186.32 269.531 183.307C272.247 179.748 273.417 173.878 266.784 164.78C266.794 164.779 266.803 164.778 266.811 164.776C266.004 163.608 265.261 162.397 264.66 161.098C259.96 150.926 263.622 138.994 268.582 128.941C273.541 118.887 279.895 108.996 280.648 97.8653C280.841 95.0201 280.638 92.0846 279.471 89.4706C276.111 81.9526 266.488 79.6972 258.184 78.3903C249.318 76.9955 240.453 75.6007 231.587 74.2059C225.198 73.2006 218.523 72.0803 213.373 68.2583C208.008 64.2767 205.119 57.9854 202.184 52.0687C194.499 36.5777 186.694 20.0506 168.547 14.4826C161.489 12.3174 154.012 11.8488 146.615 11.6361C136.806 11.3554 126.744 11.5422 117.562 14.9178C108.429 18.2749 100.558 24.7951 95.6822 33.0389C91.8515 39.5157 89.8681 47.0497 90.0041 54.5244C90.0524 57.1705 91.3012 60.153 90.6805 62.7014C90.061 65.2486 87.2529 67.9554 85.4501 69.7767C76.776 78.5436 64.5395 82.9604 55.8505 91.7334C46.9403 100.729 42.9773 113.51 42.3528 126C41.9695 133.671 42.8882 141.814 47.5301 148.02C50.5768 152.095 54.6215 154.853 55.0777 159.991Z" fill="#DAF3FF"/>
<path d="M258.024 188.804C258.024 188.759 258.022 188.713 258.024 188.667V182.705L254.497 182.53L251.452 180.631C224.722 163.958 195.627 150.891 165.019 141.81L161.724 140.832C154.714 138.752 147.101 139.469 140.671 142.815L83.2342 172.704C82.9165 172.869 82.6197 173.052 82.3415 173.249L79.3862 173.031V178.546C79.3862 178.549 79.3862 178.55 79.3862 178.551V178.599H79.3875C79.3022 180.892 80.3878 183.223 82.6939 184.674L83.4642 185.16C108.719 201.058 136.117 213.734 164.936 222.85L175.52 226.199C182.653 228.455 190.47 227.789 197.055 224.364L254.178 194.639C256.548 193.407 257.827 191.246 258.001 189.015L258.024 189.012V188.804Z" fill="#0095DA"/>
<path d="M254.178 188.557L197.056 218.282C190.473 221.708 182.656 222.373 175.521 220.116L164.938 216.768C136.118 207.651 108.72 194.976 83.4654 179.078L82.6951 178.593C78.0483 175.668 78.3414 169.169 83.2354 166.623L140.674 136.735C147.102 133.389 154.715 132.672 161.726 134.752L165.022 135.73C195.629 144.809 224.724 157.878 251.455 174.551L254.693 176.572C259.362 179.484 259.083 186.005 254.178 188.557Z" fill="#41C3FF"/>
<path d="M240.334 186.77L192.462 211.68C186.945 214.551 180.394 215.109 174.416 213.218L165.546 210.412C141.393 202.772 118.433 192.15 97.2686 178.826L96.6219 178.419C92.7281 175.967 92.9729 170.52 97.0744 168.387L145.21 143.339C150.598 140.536 156.978 139.935 162.853 141.677L165.614 142.497C191.264 150.107 215.647 161.058 238.049 175.031L240.763 176.724C244.679 179.167 244.445 184.631 240.334 186.77Z" fill="#A7E3FF"/>
<path d="M220.847 177.322C220.881 168.801 198.405 161.803 170.645 161.692C142.885 161.581 120.353 168.399 120.319 176.92C120.285 185.442 142.762 192.44 170.522 192.551C198.282 192.662 220.813 185.844 220.847 177.322Z" fill="#41C3FF"/>
<path d="M216.553 176.225C216.583 168.565 196.029 162.274 170.644 162.172C145.258 162.071 124.654 168.198 124.623 175.857C124.593 183.516 145.147 189.808 170.533 189.91C195.918 190.011 216.522 183.884 216.553 176.225Z" fill="#0072A7"/>
<path d="M137.285 152.367L119.594 161.551C117.916 162.421 114.791 162.071 112.614 160.767C110.436 159.463 110.032 157.7 111.709 156.828L129.399 147.645C131.077 146.774 134.202 147.124 136.379 148.429C138.557 149.732 138.962 151.495 137.285 152.367Z" fill="#41C3FF"/>
<path d="M231.217 155.221C241.155 157.817 250.197 159.698 253.122 158.549C260.446 155.668 263.643 103.819 267.112 94.7579C279.969 91.7557 287.023 80.569 284.131 78.5213C281.236 76.4588 269.706 82.4225 263.312 83.1966C256.918 83.9719 257.119 85.6374 255.841 88.9142C250.767 104.353 240.595 132.44 240.595 132.44L234.504 129.278C232.977 132.177 229.315 140.959 231.217 155.221Z" fill="url(#paint0_linear_57_9842)"/>
<path d="M198.092 146.461C199.332 147.113 216.278 151.295 231.217 155.221C229.315 140.959 232.977 132.177 234.504 129.276L195.629 109.075C186.002 108.739 184.813 139.491 198.092 146.461Z" fill="#0072A7"/>
<path d="M236.158 130.718C236.158 130.718 237.521 128.428 234.95 127.062C232.379 125.695 229.674 127.381 228.531 130.602C227.92 132.323 225.717 145.582 228.402 155.108C230.047 156.964 234.458 158.141 233.79 154.455C233.122 150.77 233.319 142.464 236.158 130.718Z" fill="#DAF3FF"/>
<path d="M127.533 177.127C127.533 177.127 128.812 114.94 136.638 108.857C144.465 102.773 189.739 103.129 201.222 108.857C208.439 117.865 214.695 174.467 214.695 174.467C214.695 174.467 212.175 188.163 174.382 188.118C136.591 188.074 127.533 177.127 127.533 177.127Z" fill="url(#paint1_linear_57_9842)"/>
<path d="M211.691 151.653C210.042 153.091 208.657 154.857 207.563 156.535C206.677 152.636 205.461 148.765 203.784 145.18C203.229 143.993 202.058 143.227 200.748 143.171C200.327 143.152 199.902 143.151 199.481 143.141L199.398 139.748C199.373 138.749 198.543 137.959 197.544 137.984L192.898 138.098C194.567 137.792 196.455 137.211 196.885 136.115C197.047 135.702 197.092 135.052 196.387 134.297C196.16 134.054 195.91 133.86 195.646 133.722C193.323 132.504 190.927 135.768 190.136 136.987C189.882 136.723 189.528 136.553 189.132 136.545C188.744 136.536 188.387 136.683 188.123 136.928C187.227 135.654 184.829 132.689 182.607 133.928C182.348 134.074 182.104 134.274 181.882 134.523C181.797 134.618 181.757 134.703 181.694 134.795C181.329 134.313 180.835 133.934 180.243 133.75L178.548 133.22L181.02 133.55C181.02 133.55 180.891 131.952 180.509 130.644C180.136 129.357 179.384 127.935 179.384 127.935L176.452 130.376C176.642 129.684 176.833 128.762 176.854 128.015C176.887 126.643 175.344 128.361 175.216 128.507C174.873 127.974 174.207 127.712 173.572 127.905C172.938 128.098 172.534 128.688 172.543 129.32C172.541 129.323 172.54 129.326 172.54 129.326C172.54 129.326 170.065 128.658 170.894 129.828C171.321 130.43 171.965 131.007 172.495 131.443L168.913 130.984C168.913 130.984 168.969 132.757 169.343 134.043C169.725 135.354 170.549 136.599 170.549 136.599L172.824 134.685L171.391 136.552C171.12 136.904 170.948 137.31 170.858 137.732C168.317 137.898 167.633 141.844 167.47 143.302C167.11 143.175 166.705 143.181 166.332 143.356C165.968 143.528 165.704 143.83 165.573 144.18C164.151 143.412 160.549 141.77 159.059 143.949C158.885 144.205 158.753 144.504 158.66 144.838C158.384 145.873 158.743 146.448 159.093 146.747C160.083 147.593 162.296 147.093 164.03 146.507L159.565 148.872C158.649 149.358 158.299 150.495 158.785 151.411L160.789 155.192C160.313 155.85 159.845 156.543 159.401 157.275C159.111 157.752 159.019 158.323 159.136 158.868C160.235 163.981 162.455 170.144 164.698 175.649C161.568 177.788 155.922 182.067 153.157 186.699C153.872 186.804 154.61 186.903 155.362 186.999C157.801 183.412 162.238 179.836 165.493 177.574C167.196 181.636 168.833 185.191 169.926 187.494C169.609 187.68 169.307 187.85 169 188.027C170.732 188.08 172.511 188.116 174.382 188.117C194.499 188.14 204.62 184.271 209.688 180.646C209.824 175.237 209.642 167.449 208.167 159.485C209.108 157.799 210.423 155.785 212.05 154.104C211.935 153.3 211.815 152.483 211.691 151.653ZM160.567 145.792C160.27 145.807 160.053 145.484 160.042 145.238C160.037 145.083 160.121 144.858 160.215 144.739C160.813 143.868 162.629 144.359 164.075 145.008C162.525 145.567 161.279 145.761 160.567 145.792ZM169.024 142.414C169.321 140.934 169.932 139.28 170.903 139.144C170.91 139.171 170.91 139.199 170.919 139.226L171.337 140.547C170.812 141.101 169.991 141.745 169.024 142.414ZM170.548 143.052C170.974 142.733 171.406 142.381 171.799 142.011L171.902 142.334L170.548 143.052ZM183.012 138.342L182.737 137.476C183.62 137.887 184.761 138.132 185.793 138.273L183.012 138.342ZM183.114 136.17C182.852 136.055 182.804 135.683 182.9 135.466C182.962 135.33 183.132 135.172 183.265 135.11C184.154 134.617 185.509 135.821 186.476 137.002C184.9 136.817 183.742 136.449 183.114 136.17ZM195.019 134.922C195.493 135.077 195.698 135.435 195.625 135.625C195.393 136.214 193.819 136.614 191.858 136.896C192.795 135.69 194.117 134.447 195.019 134.922Z" fill="#D55A27"/>
<path d="M145.764 70.7982C148.341 83.1324 153.258 95.4826 160.034 97.0431C168.974 99.1019 192.057 94.5985 192.288 77.3158C192.519 60.0332 191.463 42.8791 183.558 37.5299C178.024 33.7846 157.956 37.3469 147.142 45.5178C140.24 50.7321 144.76 65.9931 145.764 70.7982Z" fill="url(#paint2_linear_57_9842)"/>
<path d="M182.348 81.039C182.202 81.039 182.052 81.0019 181.917 80.9215C174.936 76.8274 164.829 79.5255 164.728 79.5527C164.276 79.6751 163.803 79.4105 163.679 78.9555C163.555 78.5017 163.821 78.0318 164.276 77.9069C164.719 77.787 175.174 74.9875 182.782 79.4501C183.189 79.6887 183.326 80.2118 183.087 80.6186C182.926 80.8881 182.641 81.039 182.348 81.039Z" fill="#D6580C"/>
<path d="M184.62 43.1289C184.62 43.1289 185.982 54.6395 198.187 49.9395C210.393 45.2396 194.97 32.992 189.978 35.763C196.228 30.2271 180.75 18.7981 167.081 19.796C153.411 20.7938 140.963 27.3436 142.533 40.4345C138.505 35.7556 135.923 43.2426 139.227 47.3515C131.396 49.5241 139.723 74.4026 145.669 73.9402C151.616 73.4777 143.769 59.5781 146.051 52.2939C148.334 45.0096 166.121 44.442 166.121 44.442C166.121 44.442 163.882 49.6094 170.402 51.0203C176.921 52.4299 184.842 46.0235 184.62 43.1289Z" fill="#0072A7"/>
<path d="M183.558 37.5287C178.024 33.7833 157.956 37.3457 147.142 45.5166C140.24 50.7322 144.76 65.9931 145.764 70.7982C145.972 71.7911 146.196 72.7828 146.433 73.7708C150.868 72.1312 143.88 59.2245 146.051 52.2939C148.335 45.0096 166.121 44.442 166.121 44.442C166.121 44.442 163.882 49.6094 170.402 51.0203C176.921 52.4311 184.842 46.0235 184.62 43.1301C184.62 43.1301 185.357 49.3052 190.552 50.7581C189.259 44.6832 187.096 39.9226 183.558 37.5287Z" fill="#004F74"/>
<path d="M154.149 71.4301C154.149 71.4301 145.732 61.0632 140.167 67.6117C134.601 74.1591 147.798 88.2491 154.149 71.4301Z" fill="url(#paint3_linear_57_9842)"/>
<path d="M144.263 75.1766C144.044 75.1766 143.829 75.0728 143.696 74.8799C143.479 74.567 143.556 74.138 143.869 73.9204L146.311 72.2263L143.43 70.9478C143.081 70.7932 142.925 70.3864 143.079 70.0377C143.235 69.689 143.645 69.5357 143.989 69.6866L147.99 71.4634C148.218 71.5648 148.373 71.78 148.396 72.0285C148.419 72.277 148.308 72.5182 148.103 72.6604L144.653 75.053C144.535 75.1371 144.398 75.1766 144.263 75.1766Z" fill="#F8A33F"/>
<path d="M163.273 72.726C158.278 72.726 153.919 69.0165 153.246 63.9307C152.892 61.2512 153.603 58.594 155.246 56.4474C156.892 54.302 159.273 52.9258 161.954 52.5697C164.63 52.2198 167.291 52.9258 169.437 54.5691C171.583 56.2137 172.959 58.5952 173.314 61.2747L173.315 61.2759C174.047 66.8081 170.141 71.905 164.607 72.637C164.16 72.6976 163.715 72.726 163.273 72.726ZM163.299 54.5493C162.942 54.5493 162.585 54.5728 162.225 54.6211C160.092 54.9042 158.196 55.9998 156.888 57.7061C155.58 59.4138 155.015 61.5282 155.297 63.6599C155.58 65.7929 156.675 67.6885 158.382 68.9955C160.089 70.3049 162.206 70.8651 164.337 70.5881C166.468 70.3049 168.364 69.2094 169.671 67.503C170.98 65.7954 171.546 63.6797 171.262 61.5467V61.548C170.98 59.4162 169.885 57.5207 168.179 56.2124C166.759 55.1243 165.058 54.5493 163.299 54.5493Z" fill="#860050"/>
<path d="M186.605 69.6383C181.61 69.6383 177.251 65.9288 176.578 60.8431C175.845 55.3122 179.751 50.2153 185.283 49.482C190.817 48.7488 195.915 52.6549 196.646 58.1883C197.379 63.7192 193.471 68.8161 187.94 69.5493C187.492 69.6099 187.045 69.6383 186.605 69.6383ZM186.627 51.4617C186.27 51.4617 185.913 51.4852 185.553 51.5334C181.151 52.117 178.045 56.1715 178.627 60.5735C179.21 64.9742 183.241 68.0853 187.668 67.5016C192.069 66.918 195.178 62.8623 194.595 58.4591C194.312 56.3273 193.217 54.4318 191.51 53.1248C190.09 52.0354 188.387 51.4617 186.627 51.4617Z" fill="#860050"/>
<path d="M171.736 58.3206L170.101 57.0544C171.218 55.6015 174.404 53.4858 178.475 55.8599L177.434 57.6467C173.998 55.6423 171.957 58.0411 171.736 58.3206Z" fill="#860050"/>
<path d="M106.858 158.946C97.3044 162.719 88.5536 165.674 85.5131 164.885C77.8962 162.906 68.4851 111.818 63.9521 103.239C50.8265 101.805 42.4776 91.548 45.1028 89.1665C47.7279 86.7714 59.8926 91.3044 66.3324 91.3044C72.7733 91.3044 72.7733 92.9824 74.4377 96.0811C81.3312 110.798 94.8079 137.457 94.8079 137.457L100.474 133.584C102.338 136.282 107.03 144.56 106.858 158.946Z" fill="url(#paint4_linear_57_9842)"/>
<path d="M138.688 146.266C137.534 147.062 121.216 153.252 106.858 158.946C107.03 144.558 102.34 136.283 100.475 133.586L136.638 108.856C146.154 107.364 151.032 137.75 138.688 146.266Z" fill="#0072A7"/>
<path d="M99.0045 135.216C99.0045 135.216 97.3773 133.107 99.7637 131.441C102.151 129.776 105.04 131.124 106.561 134.184C107.374 135.82 111.156 148.717 109.637 158.497C108.226 160.538 103.989 162.237 104.209 158.497C104.43 154.758 103.237 146.535 99.0045 135.216Z" fill="#DAF3FF"/>
<path d="M179.851 124.996C179.537 124.447 178.886 124.149 178.241 124.309C177.597 124.469 177.163 125.038 177.141 125.668C177.138 125.671 177.137 125.674 177.137 125.674C177.137 125.674 174.701 124.879 175.468 126.09C175.985 126.906 176.88 127.703 177.414 128.168C177.414 128.168 180.127 127.762 180.858 127.314C181.113 126.635 181.441 125.481 181.514 124.59C181.617 123.221 179.986 124.857 179.851 124.996Z" fill="#90BC3F"/>
<path d="M188.97 154.005L183.242 155.494C181.67 155.902 180.066 154.96 179.657 153.388L175.002 135.477C174.76 134.547 174.988 133.56 175.611 132.829L177.956 130.084C178.757 129.146 180.058 128.808 181.214 129.237L184.598 130.493C185.498 130.827 186.178 131.58 186.421 132.51L191.076 150.421C191.484 151.992 190.542 153.597 188.97 154.005Z" fill="#90BC3F"/>
<path d="M185.025 127.405C184.719 126.1 184.042 124.642 184.042 124.642L180.443 127.335C180.071 127.079 179.608 126.953 179.127 127.018C178.532 127.1 178.042 127.449 177.759 127.927L173.429 127.142C173.429 127.142 173.393 128.915 173.7 130.22C174.014 131.548 174.77 132.834 174.77 132.834L178.131 130.291C178.528 130.644 179.07 130.828 179.636 130.75C180.348 130.652 180.911 130.169 181.146 129.542L185.385 130.333C185.385 130.333 185.339 128.732 185.025 127.405Z" fill="url(#paint5_linear_57_9842)"/>
<path d="M201.102 155.854L184.486 155.399C183.486 155.372 182.699 154.539 182.726 153.54L183.181 136.924C183.208 135.925 184.04 135.137 185.04 135.165L201.656 135.62C202.655 135.647 203.442 136.479 203.415 137.478L202.96 154.094C202.932 155.093 202.101 155.881 201.102 155.854Z" fill="url(#paint6_linear_57_9842)"/>
<path d="M195.409 155.698L190.177 155.555L190.732 135.322L195.964 135.465L195.409 155.698Z" fill="url(#paint7_linear_57_9842)"/>
<path d="M200.692 131.879C200.478 131.626 200.239 131.419 199.981 131.267C197.725 129.929 195.161 133.065 194.31 134.242C194.068 133.965 193.725 133.777 193.33 133.749C192.943 133.72 192.578 133.848 192.303 134.079C191.474 132.761 189.232 129.674 186.95 130.796C186.683 130.928 186.429 131.116 186.194 131.352C185.471 132.089 185.501 132.741 185.652 133.159C186.273 134.87 190.424 135.443 191.85 135.59C192.017 136.141 192.504 136.562 193.114 136.608C193.769 136.657 194.353 136.258 194.567 135.67H194.62C195.944 135.643 200.321 135.426 201.094 133.723C201.279 133.316 201.356 132.669 200.692 131.879ZM187.341 133.059C187.085 132.93 187.056 132.557 187.164 132.345C187.233 132.213 187.411 132.063 187.546 132.009C188.46 131.563 189.751 132.836 190.654 134.065C189.09 133.797 187.953 133.369 187.341 133.059ZM199.863 133.164C199.599 133.741 198.007 134.058 196.034 134.237C197.032 133.082 198.417 131.91 199.294 132.431C199.76 132.609 199.946 132.978 199.863 133.164Z" fill="url(#paint8_linear_57_9842)"/>
<path d="M187.67 156.294L172.025 163.571C171.084 164.009 169.968 163.601 169.53 162.66L162.253 147.015C161.815 146.074 162.223 144.958 163.164 144.52L178.809 137.243C179.75 136.805 180.866 137.213 181.304 138.154L188.581 153.799C189.017 154.74 188.611 155.856 187.67 156.294Z" fill="url(#paint9_linear_57_9842)"/>
<path d="M182.311 158.787L177.384 161.078L168.522 142.027L173.448 139.736L182.311 158.787Z" fill="url(#paint10_linear_57_9842)"/>
<path d="M176.179 134.215C175.862 134.079 175.544 133.997 175.235 133.975C172.52 133.778 171.591 137.879 171.346 139.368C170.994 139.222 170.588 139.207 170.208 139.363C169.834 139.516 169.556 139.803 169.406 140.145C168.025 139.304 164.513 137.477 162.913 139.576C162.727 139.823 162.578 140.114 162.468 140.443C162.138 141.463 162.468 142.054 162.802 142.372C164.173 143.674 168.293 142.282 169.686 141.758C170.096 142.193 170.743 142.357 171.33 142.117C171.962 141.86 172.318 141.219 172.245 140.574L172.295 140.55C173.513 139.91 177.477 137.68 177.406 135.74C177.389 135.277 177.162 134.64 176.179 134.215ZM164.323 141.497C164.025 141.496 163.826 141.162 163.827 140.916C163.83 140.76 163.926 140.538 164.026 140.426C164.668 139.588 166.457 140.172 167.867 140.895C166.29 141.373 165.036 141.503 164.323 141.497ZM176.004 135.792C176.028 136.449 174.695 137.482 172.946 138.563C173.338 137.028 174.081 135.297 175.136 135.375C175.651 135.325 175.996 135.581 176.004 135.792Z" fill="url(#paint11_linear_57_9842)"/>
<path d="M227.956 167.22C228.4 167.154 228.763 166.799 228.819 166.332C228.88 165.824 230.261 153.831 226.109 149.211C224.973 147.947 223.541 147.318 221.851 147.339C213.233 147.46 207.643 159.692 207.411 160.212C207.181 160.727 207.412 161.329 207.925 161.558C208.437 161.786 209.042 161.557 209.272 161.043C209.323 160.927 214.543 149.468 221.878 149.377C222.968 149.363 223.857 149.754 224.593 150.573C227.529 153.837 227.179 162.88 226.797 166.09C226.73 166.648 227.129 167.155 227.688 167.222C227.778 167.235 227.869 167.233 227.956 167.22Z" fill="white"/>
<path d="M172.691 186.443L174.021 189.885C177.973 189.812 181.784 189.587 185.395 189.23C186.237 189.096 187.122 188.99 188.057 188.938C190.389 188.007 192.316 187.203 192.328 187.084C192.357 186.781 190.927 173.514 190.927 173.514L170.349 144.783C170.349 144.783 165.911 147.975 162.564 152.904C162.251 153.365 162.127 153.931 162.216 154.481C164.256 167.138 172.691 186.443 172.691 186.443Z" fill="url(#paint12_linear_57_9842)"/>
<path d="M178.217 187.663C178.288 187.856 178.649 188.827 178.999 189.711C192.985 188.981 204.751 186.335 211.21 182.686C212.044 175.289 213.252 157.259 207.514 143.13C207.021 141.916 205.892 141.09 204.588 140.965C191.653 139.735 177.592 142.685 171.632 144.159C169.936 144.578 168.824 146.194 169.039 147.928C169.892 154.808 172.483 172.335 178.217 187.663Z" fill="url(#paint13_linear_57_9842)"/>
<path d="M204.913 169.546C205.537 171.36 199.916 176.87 191.007 178.075C182.098 179.281 182.015 173.535 182.855 171.613C184.587 167.648 191.546 170.87 195.413 170.284C198.885 169.76 204.076 167.115 204.913 169.546Z" fill="url(#paint14_linear_57_9842)"/>
<path d="M195.413 170.285C197.599 169.954 200.465 168.785 202.498 168.57C202.736 169.196 202.959 170.111 202.607 170.875C200.946 172.578 189.618 174.756 185.668 172.726C185.209 171.852 185.287 170.661 185.464 169.725C188.35 169.201 192.66 170.702 195.413 170.285Z" fill="white"/>
<path d="M182.361 166.646C184.973 166.646 187.091 164.529 187.091 161.916C187.091 159.304 184.973 157.187 182.361 157.187C179.749 157.187 177.632 159.304 177.632 161.916C177.632 164.529 179.749 166.646 182.361 166.646Z" fill="#004F74"/>
<path d="M200.726 161.176C201.809 161.176 202.687 160.298 202.687 159.215C202.687 158.132 201.809 157.254 200.726 157.254C199.643 157.254 198.765 158.132 198.765 159.215C198.765 160.298 199.643 161.176 200.726 161.176Z" fill="#004F74"/>
<path d="M200.09 159.984C200.719 159.984 201.229 159.474 201.229 158.845C201.229 158.216 200.719 157.706 200.09 157.706C199.461 157.706 198.951 158.216 198.951 158.845C198.951 159.474 199.461 159.984 200.09 159.984Z" fill="white"/>
<path d="M180.63 163.117C181.821 163.117 182.786 162.152 182.786 160.962C182.786 159.772 181.821 158.807 180.63 158.807C179.44 158.807 178.475 159.772 178.475 160.962C178.475 162.152 179.44 163.117 180.63 163.117Z" fill="white"/>
<path opacity="0.4" d="M186.968 171.941L170.832 159.621L171.611 157.858L188.503 171.167L186.968 171.941Z" fill="white"/>
<path opacity="0.4" d="M170.576 161.418L185.871 172.709C185.871 172.709 180.656 174.55 175.352 171.21C170.046 167.869 170.576 161.418 170.576 161.418Z" fill="white"/>
<path d="M171.251 168.716C167.646 162.835 169.498 155.117 175.379 151.512C181.26 147.907 188.977 149.758 192.582 155.64C196.188 161.521 194.337 169.239 188.456 172.845C182.575 176.449 174.857 174.597 171.251 168.716ZM173.518 167.326C176.357 171.958 182.436 173.416 187.066 170.577C191.697 167.738 193.155 161.66 190.316 157.028C187.477 152.396 181.399 150.939 176.769 153.779C172.138 156.619 170.679 162.695 173.518 167.326Z" fill="#004F74"/>
<path d="M175.552 189.927C175.841 189.749 176.064 189.461 176.149 189.104L179.969 173.184C180.141 172.47 179.7 171.752 178.986 171.581C178.272 171.409 177.555 171.849 177.383 172.563L173.564 188.483C173.392 189.196 173.832 189.915 174.547 190.085C174.904 190.172 175.261 190.104 175.552 189.927Z" fill="#004F74"/>
<path d="M175.59 190.481C175.955 190.257 176.233 189.895 176.341 189.446L178.946 178.64C179.161 177.742 178.608 176.841 177.712 176.626C176.814 176.411 175.913 176.963 175.698 177.86L173.092 188.666C172.877 189.564 173.43 190.465 174.326 190.68C174.776 190.788 175.225 190.704 175.59 190.481Z" fill="#860050"/>
<path d="M158.784 190.589C164.507 189.748 172.699 185.337 174.695 184.228C175.187 183.953 175.363 183.333 175.089 182.842C174.816 182.351 174.195 182.175 173.703 182.447C163.052 188.375 156.876 189.24 155.481 188.394C155.221 188.237 154.928 187.947 154.953 187.108C155.124 181.307 165.957 174.252 170.116 172.022C170.613 171.757 170.799 171.138 170.533 170.642C170.267 170.147 169.649 169.959 169.153 170.226C168.5 170.576 153.155 178.886 152.915 187.048C152.863 188.812 153.706 189.701 154.422 190.136C155.464 190.768 157.005 190.851 158.784 190.589Z" fill="white"/>
<path d="M176.059 184.644C178.039 184.352 179.482 183.017 179.282 181.661C179.083 180.305 177.316 179.442 175.337 179.733C173.357 180.024 171.914 181.36 172.113 182.716C172.313 184.072 174.079 184.935 176.059 184.644Z" fill="white"/>
<path opacity="0.3" d="M203.204 154.86C203.245 154.853 203.284 154.841 203.324 154.823C203.529 154.724 203.617 154.476 203.518 154.271C203.494 154.22 202.917 153.038 201.781 152.766C201.087 152.602 200.364 152.805 199.629 153.372C199.074 153.8 198.546 153.955 198.06 153.835C197.298 153.647 196.774 152.827 196.686 152.634C196.592 152.426 196.349 152.33 196.136 152.431C195.928 152.526 195.837 152.774 195.933 152.981C195.939 152.995 196.584 154.326 197.862 154.641C198.608 154.825 199.373 154.619 200.137 154.03C200.664 153.623 201.155 153.472 201.587 153.575C202.337 153.752 202.769 154.622 202.772 154.631C202.85 154.795 203.03 154.886 203.204 154.86Z" fill="#004F74"/>
<path opacity="0.3" d="M177.603 156.977C177.54 156.985 177.475 156.987 177.408 156.975C177.054 156.92 176.813 156.59 176.869 156.237C176.882 156.151 177.213 154.12 178.793 153.202C179.757 152.644 180.932 152.62 182.288 153.139C183.314 153.528 184.173 153.523 184.848 153.125C185.904 152.5 186.319 151.036 186.365 150.708C186.413 150.354 186.734 150.1 187.098 150.155C187.453 150.204 187.702 150.533 187.651 150.888C187.647 150.91 187.283 153.194 185.51 154.241C184.476 154.854 183.237 154.889 181.827 154.35C180.854 153.979 180.052 153.973 179.452 154.321C178.406 154.923 178.154 156.421 178.151 156.438C178.103 156.723 177.875 156.937 177.603 156.977Z" fill="#004F74"/>
<path d="M191.007 178.076C188.763 178.38 187.079 178.242 185.829 177.835C186.501 176.301 188.143 175.075 190.205 174.771C192.544 174.427 194.708 175.375 195.669 176.989C194.244 177.469 192.684 177.849 191.007 178.076Z" fill="url(#paint15_linear_57_9842)"/>
<path d="M226.835 165.091C226.835 165.091 235.623 159.709 236.556 166.067C236.953 168.774 225.603 170.049 226.835 165.091Z" fill="white"/>
<path d="M187.656 114.296C188.951 110.965 189.166 108.101 188.922 105.791C179.831 104.529 168.061 104.128 157.871 104.655C159.691 106.451 162.426 109.045 164.075 112.687C167.85 121.026 184.073 123.514 187.656 114.296Z" fill="white"/>
<path d="M161.394 104.515C162.796 105.995 164.417 107.917 165.498 110.383C168.735 117.776 182.644 119.98 185.717 111.81C186.61 109.437 186.898 107.337 186.871 105.539C179.171 104.614 169.934 104.257 161.394 104.515Z" fill="url(#paint16_linear_57_9842)"/>
<defs>
<linearGradient id="paint0_linear_57_9842" x1="271.803" y1="115.758" x2="243.619" y2="119.174" gradientUnits="userSpaceOnUse">
<stop offset="0.0019" stop-color="#FDE2C2"/>
<stop offset="1" stop-color="#F9B260"/>
</linearGradient>
<linearGradient id="paint1_linear_57_9842" x1="171.114" y1="180.458" x2="171.114" y2="113.814" gradientUnits="userSpaceOnUse">
<stop offset="0.0028" stop-color="#F37021"/>
<stop offset="1" stop-color="#D6580C"/>
</linearGradient>
<linearGradient id="paint2_linear_57_9842" x1="167.543" y1="45.5758" x2="168.981" y2="97.3201" gradientUnits="userSpaceOnUse">
<stop offset="0.0019" stop-color="#FDE2C2"/>
<stop offset="1" stop-color="#F9B260"/>
</linearGradient>
<linearGradient id="paint3_linear_57_9842" x1="145.785" y1="50.4972" x2="146.944" y2="92.2255" gradientUnits="userSpaceOnUse">
<stop offset="0.0019" stop-color="#FDE2C2"/>
<stop offset="1" stop-color="#F9B260"/>
</linearGradient>
<linearGradient id="paint4_linear_57_9842" x1="44.62" y1="126.742" x2="106.862" y2="126.742" gradientUnits="userSpaceOnUse">
<stop offset="0.0019" stop-color="#FDE2C2"/>
<stop offset="1" stop-color="#F9B260"/>
</linearGradient>
<linearGradient id="paint5_linear_57_9842" x1="173.485" y1="128.831" x2="185.322" y2="128.405" gradientUnits="userSpaceOnUse">
<stop stop-color="#04AE59"/>
<stop offset="1" stop-color="#047B35"/>
</linearGradient>
<linearGradient id="paint6_linear_57_9842" x1="182.458" y1="145.88" x2="203.706" y2="145.114" gradientUnits="userSpaceOnUse">
<stop stop-color="#E90089"/>
<stop offset="1" stop-color="#C4007C"/>
</linearGradient>
<linearGradient id="paint7_linear_57_9842" x1="193.214" y1="128.981" x2="191.279" y2="147.024" gradientUnits="userSpaceOnUse">
<stop stop-color="#F4901E"/>
<stop offset="1" stop-color="#EA5F01"/>
</linearGradient>
<linearGradient id="paint8_linear_57_9842" x1="194.447" y1="132.781" x2="193.605" y2="136.516" gradientUnits="userSpaceOnUse">
<stop stop-color="#F4901E"/>
<stop offset="1" stop-color="#EA5F01"/>
</linearGradient>
<linearGradient id="paint9_linear_57_9842" x1="162.254" y1="150.869" x2="188.6" y2="149.92" gradientUnits="userSpaceOnUse">
<stop stop-color="#F4901E"/>
<stop offset="1" stop-color="#EA5F01"/>
</linearGradient>
<linearGradient id="paint10_linear_57_9842" x1="172.375" y1="135.838" x2="180.542" y2="152.132" gradientUnits="userSpaceOnUse">
<stop stop-color="#EA1D25"/>
<stop offset="1" stop-color="#A80000"/>
</linearGradient>
<linearGradient id="paint11_linear_57_9842" x1="168.69" y1="137.338" x2="171.831" y2="145.942" gradientUnits="userSpaceOnUse">
<stop stop-color="#EA1D25"/>
<stop offset="1" stop-color="#A80000"/>
</linearGradient>
<linearGradient id="paint12_linear_57_9842" x1="174.064" y1="146.745" x2="187.675" y2="186.592" gradientUnits="userSpaceOnUse">
<stop offset="0.000232322" stop-color="#0EB3FF"/>
<stop offset="1" stop-color="#0095DA"/>
</linearGradient>
<linearGradient id="paint13_linear_57_9842" x1="186.098" y1="141.63" x2="200.868" y2="184.87" gradientUnits="userSpaceOnUse">
<stop stop-color="#74D3FF"/>
<stop offset="1" stop-color="#0EB3FF"/>
</linearGradient>
<linearGradient id="paint14_linear_57_9842" x1="193.931" y1="171.339" x2="193.866" y2="174.144" gradientUnits="userSpaceOnUse">
<stop stop-color="#3EBDFF"/>
<stop offset="1" stop-color="#0B75C4"/>
</linearGradient>
<linearGradient id="paint15_linear_57_9842" x1="195.48" y1="176.374" x2="185.906" y2="177.783" gradientUnits="userSpaceOnUse">
<stop stop-color="#EA1D25"/>
<stop offset="1" stop-color="#A80000"/>
</linearGradient>
<linearGradient id="paint16_linear_57_9842" x1="174.133" y1="117.447" x2="174.133" y2="106.511" gradientUnits="userSpaceOnUse">
<stop offset="0.0019" stop-color="#FDE2C2"/>
<stop offset="1" stop-color="#F9B260"/>
</linearGradient>
</defs>
</svg>
